<?xml version="1.0" encoding="UTF-8" standalone="no"?>
<!-- Created with Inkscape (http://www.inkscape.org/) -->
<svg xmlns:rdf="http://www.w3.org/1999/02/22-rdf-syntax-ns#" xmlns="http://www.w3.org/2000/svg" viewBox="0 0 158.64948 158.65883" height="158.66mm" width="158.65mm" version="1.1" xmlns:cc="http://creativecommons.org/ns#" xmlns:dc="http://purl.org/dc/elements/1.1/">
 <metadata>
  <rdf:RDF>
   <cc:Work rdf:about="">
    <dc:format>image/svg+xml</dc:format>
    <dc:type rdf:resource="http://purl.org/dc/dcmitype/StillImage"/>
    <dc:title/>
   </cc:Work>
  </rdf:RDF>
 </metadata>
 <g transform="translate(-29.912 -26.776)">
  <g stroke-width=".26458" transform="translate(19.392 -.79691)">
   <path fill="#eda519" d="m80.679 185.87c-7.864-0.91-15.8-3.07-22.959-6.23-1.5941-0.70469-3.1824-1.4673-3.5295-1.6948l-0.63109-0.41351v-16.795c0-11.232 0.08933-16.795 0.26968-16.795 0.14833 0 1.2497 0.84727 2.4474 1.8828 5.8243 5.0356 13.657 9.1083 21.016 10.928 4.7709 1.1795 6.3091 1.3448 12.515 1.3448 6.206 0 7.7442-0.16528 12.515-1.3448 7.8161-1.9323 16.076-6.3496 21.956-11.741 0.84179-0.77192 1.6113-1.3227 1.71-1.2241 0.0987 0.0987 0.14775 7.7046 0.10902 16.902-0.0676 16.054-0.0905 16.74-0.57303 17.152-0.27644 0.23607-1.7881 0.99516-3.3593 1.6869-7.6734 3.3782-15.273 5.4345-23.494 6.3566-4.2021 0.47133-13.902 0.46619-17.992-0.01zm-61.644-43.08c-1.729-2.64-5.367-12.69-6.575-18.17-3.2461-14.71-2.41-29.611 2.453-43.704 1.1476-3.3258 3.131-8.0104 3.983-9.4071l0.52451-0.8599h16.805c11.15 0 16.805 0.09002 16.805 0.26752 0 0.14714-0.89932 1.308-1.9985 2.5797-6.2973 7.2857-10.382 16.174-11.927 25.955-0.5948 3.7655-0.59457 11.335 0.000529 15.118 1.5347 9.7571 5.6991 18.775 12.068 26.133 1.0212 1.1798 1.8567 2.2714 1.8567 2.4257-0.000069 0.19484-5.1345 0.28063-16.795 0.28063h-16.796zm117.8 0.42068c-5.6389-0.0399-10.253-0.13452-10.253-0.21038 0-0.0759 1.0029-1.3304 2.2287-2.7879 11.966-14.228 15.37-32.526 9.3712-50.381-0.81846-2.4363-3.669-8.2086-5.2919-10.716-1.5769-2.4361-4.1792-5.7523-5.4889-6.9948-0.45053-0.42741-0.81915-0.9343-0.81915-1.1264 0-0.28645 3.0594-0.33706 16.999-0.28123l16.999 0.06809 0.84361 1.7198c1.1748 2.3948 3.3198 7.8496 4.2659 10.848 3.5424 11.226 4.446 25.182 2.3984 37.042-1.1645 6.745-3.0746 13.016-5.8426 19.182-0.71856 1.6007-1.495 3.1188-1.7253 3.3734-0.38039 0.4205-1.0165 0.45724-6.9263 0.40008-3.5791-0.0346-11.121-0.0956-16.76-0.1354zm-83.332-89.428c-0.04444-9.1314-0.04353-16.738 0.0021-16.903 0.10311-0.37402 4.4803-2.4234 8.5161-3.9872 17.134-6.6392 35.339-7.0707 52.848-1.2527 4.9155 1.6334 10.842 4.2143 11.131 4.847 0.10744 0.23573 0.15348 7.8998 0.1023 17.031-0.073 13.033-0.16398 16.603-0.42293 16.603-0.18143 0-0.61851-0.31122-0.9713-0.69161-1.158-1.2486-4.2974-3.7003-7.0339-5.4931-13.681-8.9629-31.393-10.719-46.762-4.6355-5.1868 2.053-10.566 5.3383-14.669 8.9596-1.3244 1.1689-2.4644 2.1252-2.5333 2.1252-0.06887 0-0.16157-7.4712-0.20601-16.603z"/>
   <path fill="#f16420" d="m19.035 142.79c-1.729-2.64-5.367-12.69-6.575-18.17-3.2461-14.71-2.41-29.611 2.453-43.704 1.1476-3.3258 3.131-8.0104 3.983-9.4071l0.52451-0.8599h16.805c11.15 0 16.805 0.09002 16.805 0.26752 0 0.14714-0.89932 1.308-1.9985 2.5797-6.2973 7.2857-10.382 16.174-11.927 25.955-0.5948 3.7655-0.59457 11.335 0.000529 15.118 1.5347 9.7571 5.6991 18.775 12.068 26.133 1.0212 1.1798 1.8567 2.2714 1.8567 2.4257-0.000069 0.19484-5.1345 0.28063-16.795 0.28063h-16.796zm117.8 0.42068c-5.6389-0.0399-10.253-0.13452-10.253-0.21038 0-0.0759 1.0029-1.3304 2.2287-2.7879 11.966-14.228 15.37-32.526 9.3712-50.381-0.81846-2.4363-3.669-8.2086-5.2919-10.716-1.5769-2.4361-4.1792-5.7523-5.4889-6.9948-0.45053-0.42741-0.81915-0.9343-0.81915-1.1264 0-0.28645 3.0594-0.33706 16.999-0.28123l16.999 0.06809 0.84361 1.7198c1.1748 2.3948 3.3198 7.8496 4.2659 10.848 3.5424 11.226 4.446 25.182 2.3984 37.042-1.1645 6.745-3.0746 13.016-5.8426 19.182-0.71856 1.6007-1.495 3.1188-1.7253 3.3734-0.38039 0.4205-1.0165 0.45724-6.9263 0.40008-3.5791-0.0346-11.121-0.0956-16.76-0.1354zm-83.071-89.557c-0.04271-8.9149 0.0085-16.403 0.11372-16.641 0.25447-0.575 7.2494-3.6382 11.644-5.0992 18.796-6.2483 38.215-5.2912 56.604 2.7898 1.9894 0.87422 3.6574 1.7297 3.7066 1.9011 0.0493 0.17136 0.0499 7.7282 0.001 16.793l-0.0882 16.481-1.2372-1.0773c-4.0688-3.5431-7.8399-6.0599-12.35-8.242-16.193-7.8354-35.463-6.6035-50.403 3.222-2.496 1.6415-5.9011 4.2896-6.6021 5.1342-0.20119 0.24242-0.57878 0.55474-0.83908 0.69405-0.45186 0.24183-0.47679-0.47998-0.55093-15.956z"/>
   <path fill="#5a56a5" d="m19.035 142.79c-1.729-2.64-5.367-12.69-6.575-18.17-3.2461-14.71-2.41-29.611 2.453-43.704 1.1476-3.3258 3.131-8.0104 3.983-9.4071l0.52451-0.8599h16.805c11.15 0 16.805 0.09002 16.805 0.26752 0 0.14714-0.89932 1.308-1.9985 2.5797-6.2973 7.2857-10.382 16.174-11.927 25.955-0.5948 3.7655-0.59457 11.335 0.000529 15.118 1.5347 9.7571 5.6991 18.775 12.068 26.133 1.0212 1.1798 1.8567 2.2714 1.8567 2.4257-0.000069 0.19484-5.1345 0.28063-16.795 0.28063h-16.796zm117.8 0.42068c-5.6389-0.0399-10.253-0.13452-10.253-0.21038 0-0.0759 1.0029-1.3304 2.2287-2.7879 11.966-14.228 15.37-32.526 9.3712-50.381-0.81846-2.4363-3.669-8.2086-5.2919-10.716-1.5769-2.4361-4.1792-5.7523-5.4889-6.9948-0.45053-0.42741-0.81915-0.9343-0.81915-1.1264 0-0.28645 3.0594-0.33706 16.999-0.28123l16.999 0.06809 0.84361 1.7198c1.1748 2.3948 3.3198 7.8496 4.2659 10.848 3.5424 11.226 4.446 25.182 2.3984 37.042-1.1645 6.745-3.0746 13.016-5.8426 19.182-0.71856 1.6007-1.495 3.1188-1.7253 3.3734-0.38039 0.4205-1.0165 0.45724-6.9263 0.40008-3.5791-0.0346-11.121-0.0956-16.76-0.1354z"/>
   <path fill="#039283" d="m127.04 142.98c-0.0903-0.0903 0.79757-1.3016 1.9731-2.6917 4.8459-5.7306 8.9176-13.506 10.652-20.341 4.1709-16.437 0.20746-33.673-10.663-46.37-1.1729-1.37-2.071-2.5904-1.9958-2.712 0.0751-0.12159 7.4887-0.22108 16.475-0.22108 12.66 0 16.437 0.07445 16.776 0.33073 0.4893 0.36925 1.8521 3.2528 3.3725 7.1362 2.5523 6.5188 4.1715 13.222 5.0251 20.805 0.41764 3.7098 0.34464 12.857-0.13554 16.984-1.0218 8.7807-3.683 18.051-7.2122 25.123l-0.99023 1.9844-16.557 0.0681c-9.1061 0.0375-16.63-0.006-16.721-0.0961z"/>
  </g>
 </g>
</svg>
